<svg width="18" height="17" viewBox="0 0 18 17" fill="none" xmlns="http://www.w3.org/2000/svg">
  <path fill-rule="evenodd" clip-rule="evenodd" d="M8.70703 1.28668C8.8945 1.47421 8.99982 1.72852 8.99982 1.99368C8.99982 2.25885 8.8945 2.51315 8.70703 2.70068L3.41403 7.99368H17C17.2652 7.99368 17.5196 8.09904 17.7071 8.28658C17.8947 8.47411 18 8.72847 18 8.99368C18 9.2589 17.8947 9.51325 17.7071 9.70079C17.5196 9.88833 17.2652 9.99368 17 9.99368H3.41403L8.70703 15.2867C8.88919 15.4753 8.98998 15.7279 8.9877 15.9901C8.98543 16.2523 8.88026 16.5031 8.69485 16.6885C8.50944 16.8739 8.25863 16.9791 7.99643 16.9814C7.73423 16.9836 7.48163 16.8828 7.29303 16.7007L0.293031 9.70068C0.105559 9.51315 0.000244141 9.25885 0.000244141 8.99368C0.000244141 8.72852 0.105559 8.47421 0.293031 8.28668L7.29303 1.28668C7.48056 1.09921 7.73487 0.993896 8.00003 0.993896C8.26519 0.993896 8.5195 1.09921 8.70703 1.28668Z" fill="white"/>
</svg>
